<svg width="129" height="131" viewBox="0 0 129 131" fill="none" xmlns="http://www.w3.org/2000/svg">
<path d="M30.1665 32.1959C27.615 43.7625 30.3366 56.6899 37.6507 66.7256C41.3929 71.9987 45.9855 75.9109 51.2585 78.4624C47.8566 74.8903 45.8154 69.9575 45.9855 64.6845C45.9855 64.5144 45.9855 64.1742 46.1556 63.834C46.1556 62.8134 46.3257 61.6227 46.6659 60.2619H46.836C49.0473 49.0355 55.8512 38.9998 65.3766 32.8763C72.3506 28.2836 80.1751 25.9023 88.3398 25.9023C91.4015 25.9023 94.6334 26.2425 97.6951 27.093C108.581 29.4743 118.277 36.6184 124.23 46.314C125.421 48.185 126.442 50.0561 127.292 52.0973C125.251 42.0615 120.998 32.7062 114.535 24.3714C106.2 13.9955 95.1437 6.34107 82.3864 2.59893C78.9844 1.57834 75.4124 0.897963 71.6702 0.557763C70.9898 0.387667 70.1393 0.387667 69.2889 0.387667C62.485 0.387667 55.8512 2.25873 49.8978 5.66069C39.862 11.2739 32.7179 20.9694 30.1665 32.1959ZM33.7385 101.766C36.1199 102.276 38.3311 102.446 40.7125 102.446C56.1914 102.446 70.1393 93.0907 76.7731 79.4829C73.5413 82.3746 69.1188 84.2457 64.5261 84.2457H64.1859C63.5055 84.2457 62.8252 84.2457 62.3149 84.0756C51.9389 83.055 42.4135 77.4418 35.6096 68.0864C28.1253 57.5404 25.0635 43.9326 27.9552 31.6856C30.5067 19.7788 38.161 9.57293 48.7071 3.44942C50.238 2.59893 51.9389 1.74845 53.81 1.06806C43.0939 2.93913 33.0581 7.53176 24.5532 14.5057C13.1567 23.8611 5.16215 37.1287 1.9303 51.587C1.42001 53.7982 1.07982 56.0095 0.909716 58.3909C0.229325 67.406 2.2705 76.2511 7.20332 83.9055C13.1567 93.2608 22.8523 99.8946 33.7385 101.766ZM122.189 47.5046C116.576 38.3194 107.391 31.6856 97.1848 29.3042C94.2932 28.6238 91.2314 28.2836 88.3398 28.2836C80.6854 28.2836 73.2011 30.4949 66.7374 34.7473C60.2737 38.9998 55.3409 44.7831 52.109 51.587C55.3409 48.5252 59.7634 46.6541 64.356 46.6541H64.6962C65.5467 46.6541 66.5673 46.6541 67.5879 46.8242C77.7937 48.185 87.4893 55.3291 94.2932 66.2153C100.927 76.9315 102.628 90.029 99.0559 102.106C95.3137 114.183 86.6388 124.048 75.2423 129.151C74.2217 129.492 73.3712 129.832 72.5207 130.172C99.226 126.6 121.509 106.018 127.122 78.6325C127.632 76.5913 127.972 74.5501 128.143 72.3388C128.823 63.4938 126.782 54.9889 122.189 47.5046ZM61.4644 81.6942H62.485C62.9953 81.8643 63.6756 81.8643 64.1859 81.8643H64.5261C71.6702 81.8643 77.9638 76.9315 80.005 70.1276C80.3452 68.9369 80.5153 67.5761 80.6854 66.0452C81.0256 57.8806 75.2423 50.5664 67.5879 49.2056H67.2477C66.2271 49.0355 65.2065 49.0355 64.356 49.0355C57.2119 49.0355 50.9183 53.9683 49.0473 60.9423C48.7071 62.3031 48.537 63.4938 48.3669 64.6845C48.0267 72.8491 53.6399 80.1633 61.4644 81.6942ZM96.8446 101.425C100.247 89.8589 98.7157 77.6119 92.4221 67.406C88.68 61.6227 84.0873 56.86 78.9844 53.6281C81.706 57.0301 83.2368 61.4526 83.0667 66.2153C82.8966 67.5761 82.5564 69.107 82.2163 70.6379C78.1339 90.3692 60.6139 104.827 40.7125 104.827C38.3311 104.827 35.7797 104.487 33.3983 104.147C21.8317 102.106 11.6258 95.1319 5.16215 85.0962C3.80137 83.055 2.78079 80.8437 1.7602 78.6325C6.01264 99.7245 20.4709 117.925 40.7125 126.09C45.135 127.961 49.7277 129.151 54.3203 130.002C55.1708 130.002 55.8512 130.172 56.5316 130.172C57.2119 130.342 57.7222 130.342 58.4026 130.342C63.8457 130.342 69.2889 129.151 74.2217 126.94C85.1079 122.177 93.2726 112.822 96.8446 101.425Z" fill="black"/>
</svg>
