<svg width="78" height="79" viewBox="0 0 78 79" fill="none" xmlns="http://www.w3.org/2000/svg">
<path d="M17.8313 19.1644C16.3004 26.1384 18.0014 33.9629 22.2538 40.0864C24.6352 43.1482 27.3567 45.5295 30.5886 47.2305C28.5474 45.0192 27.3567 41.9575 27.3567 38.8957C27.3567 38.7256 27.3567 38.5555 27.5268 38.3854C27.5268 37.7051 27.6969 37.0247 27.867 36.1742C29.2278 29.3703 33.3102 23.4169 39.0935 19.6747C43.3459 16.9532 48.1086 15.4223 53.0414 15.4223C54.9125 15.4223 56.7836 15.5924 58.6547 16.1027C65.2885 17.6336 71.0718 21.886 74.6438 27.6693C75.3242 28.86 76.0046 30.0507 76.5149 31.2414C75.3242 25.1178 72.6026 19.5046 68.6904 14.5718C63.7576 8.27821 56.9537 3.68558 49.2993 1.47432C47.2581 0.793924 45.217 0.283629 43.0057 0.113534H41.4748C37.3925 0.113534 33.3102 1.13412 29.7381 3.17529C23.6146 6.57723 19.3622 12.5306 17.8313 19.1644ZM20.0426 61.1785C21.4033 61.5187 22.7641 61.5187 24.295 61.5187C33.6503 61.5187 41.9851 56.0756 46.0675 47.7408C44.0263 49.6119 41.3047 50.6325 38.5832 50.6325H38.4131C37.9028 50.6325 37.5626 50.6325 37.2224 50.4624C30.9288 49.9521 25.3156 46.5501 21.2332 40.9369C16.6406 34.4732 14.7695 26.3085 16.4705 18.9943C18.0014 11.6802 22.594 5.55665 29.0577 1.98461C30.0783 1.30422 31.0989 0.793924 32.1195 0.453734C25.6558 1.64441 19.5323 4.36597 14.4293 8.6184C7.62545 14.2316 2.69263 22.2262 0.821558 30.9012C0.481363 32.2619 0.311265 33.6227 0.141168 34.9835C-0.199028 40.4266 0.991654 45.6996 4.05341 50.2923C7.62545 56.0756 13.4088 59.9878 20.0426 61.1785ZM73.4531 28.5198C70.0512 22.9066 64.438 18.8242 58.3145 17.4635C56.4434 17.1233 54.7424 16.9532 52.8713 16.9532C48.2787 16.9532 43.8562 18.314 39.9439 20.8654C36.0317 23.2468 32.97 26.8188 31.0989 30.9012C33.1401 29.0301 35.6915 28.0095 38.4131 27.8394H38.5832C39.2636 27.8394 39.7739 28.0095 40.4542 28.0095C46.5777 28.86 52.5312 33.1124 56.6135 39.7462C60.5257 46.2099 61.5463 54.0344 59.335 61.3486C57.1238 68.6628 51.8508 74.6162 45.0469 77.6779C44.5366 77.848 43.8562 78.1882 43.3459 78.3583C59.5051 76.1471 72.9428 63.7299 76.3448 47.2305C76.685 46.0398 76.8551 44.8491 77.0252 43.4884C77.3654 38.0452 76.1747 32.9423 73.4531 28.5198ZM36.7121 49.1016H37.3925C37.7327 49.1016 38.0729 49.2717 38.4131 49.2717H38.5832C42.8356 49.2717 46.7478 46.2099 47.9385 42.1276C48.1086 41.2771 48.2787 40.5967 48.2787 39.5761C48.4488 34.6433 45.0469 30.3909 40.4542 29.5404H40.2841C39.6038 29.3703 39.0935 29.3703 38.4131 29.3703C34.1606 29.3703 30.4185 32.2619 29.2278 36.5144C29.0577 37.3649 28.8876 38.0452 28.8876 38.8957C28.7175 43.8286 32.1195 48.081 36.7121 49.1016ZM57.9743 61.0084C60.1855 54.0344 59.1649 46.5501 55.4228 40.4266C53.2115 37.0247 50.3199 34.133 47.2581 32.0918C48.9591 34.3031 49.8096 36.8546 49.8096 39.7462C49.6395 40.5967 49.4694 41.4472 49.2993 42.2977C46.7478 54.3746 36.2018 63.0496 24.295 63.0496C22.7641 63.0496 21.2332 62.8795 19.7024 62.7094C12.8985 61.3486 6.60487 57.2662 2.86273 51.1427C2.01224 49.9521 1.33185 48.5913 0.821558 47.2305C3.37302 59.9878 12.048 71.0441 24.295 75.977C26.8465 76.9975 29.568 77.6779 32.4597 78.1882C32.97 78.1882 33.3102 78.3583 33.8204 78.3583H34.841C38.243 78.3583 41.4748 77.6779 44.5366 76.3172C51.0003 73.4255 55.9331 67.9824 57.9743 61.0084Z" fill="black"/>
</svg>
