<svg width="296" height="105" viewBox="0 0 296 105" fill="none" xmlns="http://www.w3.org/2000/svg">
<rect x="0.641803" y="1.01143" width="294.409" height="102.635" rx="15.5669" fill="white" stroke="black" stroke-width="0.759363"/>
<path d="M22.2227 59.6324C22.9672 60.2432 23.8167 60.73 24.7712 61.0928C25.7257 61.4555 26.9093 61.6368 28.322 61.6368C29.7538 61.6368 30.8228 61.3696 31.5292 60.835C32.2546 60.2814 32.6173 59.6419 32.6173 58.9165C32.6173 58.611 32.5505 58.3247 32.4169 58.0574C32.2832 57.771 32.0351 57.5038 31.6723 57.2556C31.3096 56.9883 30.8037 56.7402 30.1547 56.5111C29.5247 56.2629 28.7038 56.0147 27.692 55.7666C26.9093 55.5757 26.1839 55.3561 25.5157 55.108C24.8667 54.8598 24.3035 54.583 23.8262 54.2775C23.349 53.953 22.9672 53.5998 22.6808 53.218C22.4136 52.8362 22.2799 52.4162 22.2799 51.9581C22.2799 51.4617 22.3849 50.994 22.5949 50.5549C22.8049 50.0968 23.1294 49.7054 23.5685 49.3809C24.0267 49.0373 24.5899 48.77 25.258 48.5791C25.9453 48.3882 26.747 48.2927 27.6634 48.2927C28.5797 48.2927 29.5151 48.455 30.4697 48.7795C31.4433 49.1041 32.2641 49.505 32.9323 49.9822L32.245 50.8986C31.6342 50.4404 30.9469 50.0777 30.1833 49.8104C29.4197 49.5241 28.5702 49.3809 27.6347 49.3809C26.8711 49.3809 26.2316 49.4572 25.7162 49.61C25.2007 49.7436 24.7808 49.925 24.4562 50.154C24.1508 50.3831 23.9312 50.6504 23.7976 50.9558C23.664 51.2422 23.5972 51.5476 23.5972 51.8722C23.5972 52.5403 24.0076 53.1035 24.8285 53.5616C25.6685 54.0007 26.8043 54.3921 28.2361 54.7357C29.3051 55.003 30.2024 55.2798 30.9278 55.5661C31.6532 55.8334 32.2355 56.1293 32.6746 56.4538C33.1327 56.7784 33.4573 57.1411 33.6482 57.542C33.8391 57.9238 33.9345 58.3628 33.9345 58.8592C33.9345 59.3746 33.8104 59.871 33.5623 60.3482C33.3141 60.8064 32.9418 61.2168 32.4455 61.5796C31.9682 61.9232 31.3764 62.2 30.6701 62.41C29.9638 62.62 29.162 62.725 28.2647 62.725C26.833 62.725 25.5539 62.515 24.4276 62.095C23.3013 61.6559 22.3277 61.1405 21.5068 60.5487L22.2227 59.6324ZM39.3068 41.7925H40.5954V47.7487L40.5095 51.3567C41.3685 50.4595 42.2276 49.7245 43.0867 49.1518C43.9648 48.5791 44.9575 48.2927 46.0648 48.2927C49.3674 48.2927 51.0187 50.1349 51.0187 53.8194V62.3813H49.7301V53.9912C49.7301 52.4449 49.4246 51.2995 48.8138 50.5549C48.222 49.8104 47.2388 49.4382 45.8643 49.4382C45.368 49.4382 44.9098 49.505 44.4898 49.6386C44.0698 49.7531 43.6498 49.944 43.2299 50.2113C42.829 50.4595 42.409 50.784 41.9699 51.1849C41.5499 51.5667 41.0917 52.0153 40.5954 52.5308V62.3813H39.3068V41.7925ZM56.2478 48.6364H64.4089V62.3813H63.1489V49.7245H56.2478V48.6364ZM63.4639 45.3147C63.0821 45.3147 62.7575 45.1906 62.4903 44.9424C62.2421 44.6942 62.118 44.3601 62.118 43.9402C62.118 43.5202 62.2421 43.1861 62.4903 42.9379C62.7575 42.6897 63.0821 42.5657 63.4639 42.5657C63.8457 42.5657 64.1607 42.6897 64.4089 42.9379C64.6761 43.1861 64.8098 43.5202 64.8098 43.9402C64.8098 44.3601 64.6761 44.6942 64.4089 44.9424C64.1607 45.1906 63.8457 45.3147 63.4639 45.3147ZM86.676 43.2529C86.0269 42.9666 85.4638 42.7756 84.9865 42.6802C84.5093 42.5847 83.9461 42.537 83.297 42.537C82.5716 42.537 81.9512 42.642 81.4357 42.852C80.9394 43.062 80.5289 43.3579 80.2044 43.7397C79.8799 44.1215 79.6412 44.5797 79.4885 45.1142C79.3549 45.6487 79.2881 46.231 79.2881 46.861V48.6364H85.6738V49.7245H79.2881V62.3813H78.0854V49.7245H73.9333V48.7509L78.0854 48.6364V46.9755C78.0854 45.2383 78.5054 43.8829 79.3453 42.9093C80.1853 41.9357 81.4739 41.4489 83.2111 41.4489C83.822 41.4489 84.4424 41.5061 85.0724 41.6207C85.7024 41.7352 86.3706 41.9548 87.0769 42.2793L86.676 43.2529ZM94.2532 49.7245H90.1297V48.7509L94.2818 48.6364L94.4536 44.656H95.5132V48.6364H102.815V49.7245H95.5132V57.3415C95.5132 58.0097 95.5704 58.611 95.685 59.1455C95.7995 59.661 96 60.1096 96.2863 60.4914C96.5727 60.8541 96.9545 61.1309 97.4317 61.3218C97.9281 61.5127 98.5581 61.6082 99.3217 61.6082C100.047 61.6082 100.706 61.5509 101.298 61.4364C101.889 61.3027 102.452 61.1214 102.987 60.8923L103.331 61.8659C102.72 62.1332 102.032 62.3432 101.269 62.4959C100.524 62.6486 99.818 62.725 99.1498 62.725C98.2144 62.725 97.4317 62.5913 96.8017 62.3241C96.1718 62.0568 95.6659 61.6846 95.2841 61.2073C94.9214 60.73 94.6541 60.1573 94.4823 59.4892C94.3296 58.8019 94.2532 58.0479 94.2532 57.227V49.7245Z" fill="black"/>
</svg>
