<svg width="1283" height="355" viewBox="0 0 1283 355" fill="none" xmlns="http://www.w3.org/2000/svg">
<path d="M840.324 162.677V197.98" stroke="black" stroke-width="0.759363"/>
<path d="M857.975 181.329L822.672 180.329" stroke="black" stroke-width="0.759363"/>
<path d="M1099.15 187.711L1063.85 186.711" stroke="black" stroke-width="0.759363"/>
<path d="M1099.15 174.946L1063.85 173.946" stroke="black" stroke-width="0.759363"/>
<path id = "bigSpinner" d="M1182.17 148.196C1179.62 159.762 1182.34 172.69 1189.65 182.726C1193.39 187.999 1197.99 191.911 1203.26 194.462C1199.86 190.89 1197.82 185.957 1197.99 180.684C1197.99 180.514 1197.99 180.174 1198.16 179.834C1198.16 178.813 1198.33 177.623 1198.67 176.262H1198.84C1201.05 165.036 1207.85 155 1217.38 148.876C1224.35 144.284 1232.18 141.902 1240.34 141.902C1243.4 141.902 1246.63 142.242 1249.7 143.093C1260.58 145.474 1270.28 152.618 1276.23 162.314C1277.42 164.185 1278.44 166.056 1279.29 168.097C1277.25 158.062 1273 148.706 1266.53 140.371C1258.2 129.995 1247.14 122.341 1234.39 118.599C1230.98 117.578 1227.41 116.898 1223.67 116.558C1222.99 116.388 1222.14 116.388 1221.29 116.388C1214.48 116.388 1207.85 118.259 1201.9 121.661C1191.86 127.274 1184.72 136.969 1182.17 148.196ZM1185.74 217.766C1188.12 218.276 1190.33 218.446 1192.71 218.446C1208.19 218.446 1222.14 209.091 1228.77 195.483C1225.54 198.375 1221.12 200.246 1216.53 200.246H1216.19C1215.51 200.246 1214.83 200.246 1214.31 200.076C1203.94 199.055 1194.41 193.442 1187.61 184.086C1180.13 173.54 1177.06 159.933 1179.96 147.686C1182.51 135.779 1190.16 125.573 1200.71 119.449C1202.24 118.599 1203.94 117.748 1205.81 117.068C1195.09 118.939 1185.06 123.532 1176.55 130.506C1165.16 139.861 1157.16 153.129 1153.93 167.587C1153.42 169.798 1153.08 172.01 1152.91 174.391C1152.23 183.406 1154.27 192.251 1159.2 199.905C1165.16 209.261 1174.85 215.895 1185.74 217.766ZM1274.19 163.505C1268.58 154.319 1259.39 147.686 1249.18 145.304C1246.29 144.624 1243.23 144.284 1240.34 144.284C1232.69 144.284 1225.2 146.495 1218.74 150.747C1212.27 155 1207.34 160.783 1204.11 167.587C1207.34 164.525 1211.76 162.654 1216.36 162.654H1216.7C1217.55 162.654 1218.57 162.654 1219.59 162.824C1229.79 164.185 1239.49 171.329 1246.29 182.215C1252.93 192.931 1254.63 206.029 1251.06 218.106C1247.31 230.183 1238.64 240.048 1227.24 245.151C1226.22 245.492 1225.37 245.832 1224.52 246.172C1251.23 242.6 1273.51 222.018 1279.12 194.632C1279.63 192.591 1279.97 190.55 1280.14 188.339C1280.82 179.494 1278.78 170.989 1274.19 163.505ZM1213.46 197.694H1214.48C1215 197.864 1215.68 197.864 1216.19 197.864H1216.53C1223.67 197.864 1229.96 192.931 1232 186.128C1232.35 184.937 1232.52 183.576 1232.69 182.045C1233.03 173.881 1227.24 166.566 1219.59 165.206H1219.25C1218.23 165.036 1217.21 165.036 1216.36 165.036C1209.21 165.036 1202.92 169.968 1201.05 176.942C1200.71 178.303 1200.54 179.494 1200.37 180.684C1200.03 188.849 1205.64 196.163 1213.46 197.694ZM1248.84 217.425C1252.25 205.859 1250.72 193.612 1244.42 183.406C1240.68 177.623 1236.09 172.86 1230.98 169.628C1233.71 173.03 1235.24 177.453 1235.07 182.215C1234.9 183.576 1234.56 185.107 1234.22 186.638C1230.13 206.369 1212.61 220.827 1192.71 220.827C1190.33 220.827 1187.78 220.487 1185.4 220.147C1173.83 218.106 1163.63 211.132 1157.16 201.096C1155.8 199.055 1154.78 196.844 1153.76 194.632C1158.01 215.725 1172.47 233.925 1192.71 242.09C1197.14 243.961 1201.73 245.151 1206.32 246.002C1207.17 246.002 1207.85 246.172 1208.53 246.172C1209.21 246.342 1209.72 246.342 1210.4 246.342C1215.85 246.342 1221.29 245.151 1226.22 242.94C1237.11 238.177 1245.27 228.822 1248.84 217.425Z" fill="black"/>
<rect x="909.595" y="129.011" width="102.635" height="102.635" rx="15.5669" fill="white" stroke="black" stroke-width="0.759363"/>
<path d="M950.777 148.262L971.047 157.291L950.777 166.319" stroke="black" stroke-width="0.459203" stroke-linecap="round" stroke-linejoin="round"/>
<circle cx="960.912" cy="216.27" r="2.40733" stroke="black" stroke-width="0.759363"/>
<rect x="476.642" y="129.011" width="294.409" height="102.635" rx="15.5669" fill="white" stroke="black" stroke-width="0.759363"/>
<path d="M498.223 187.632C498.967 188.243 499.817 188.73 500.771 189.093C501.726 189.455 502.909 189.637 504.322 189.637C505.754 189.637 506.823 189.37 507.529 188.835C508.255 188.281 508.617 187.642 508.617 186.916C508.617 186.611 508.55 186.325 508.417 186.057C508.283 185.771 508.035 185.504 507.672 185.256C507.31 184.988 506.804 184.74 506.155 184.511C505.525 184.263 504.704 184.015 503.692 183.767C502.909 183.576 502.184 183.356 501.516 183.108C500.867 182.86 500.303 182.583 499.826 182.278C499.349 181.953 498.967 181.6 498.681 181.218C498.414 180.836 498.28 180.416 498.28 179.958C498.28 179.462 498.385 178.994 498.595 178.555C498.805 178.097 499.129 177.705 499.569 177.381C500.027 177.037 500.59 176.77 501.258 176.579C501.945 176.388 502.747 176.293 503.663 176.293C504.58 176.293 505.515 176.455 506.47 176.78C507.443 177.104 508.264 177.505 508.932 177.982L508.245 178.899C507.634 178.44 506.947 178.078 506.183 177.81C505.42 177.524 504.57 177.381 503.635 177.381C502.871 177.381 502.232 177.457 501.716 177.61C501.201 177.744 500.781 177.925 500.456 178.154C500.151 178.383 499.931 178.65 499.798 178.956C499.664 179.242 499.597 179.548 499.597 179.872C499.597 180.54 500.008 181.103 500.828 181.562C501.668 182.001 502.804 182.392 504.236 182.736C505.305 183.003 506.202 183.28 506.928 183.566C507.653 183.833 508.235 184.129 508.675 184.454C509.133 184.778 509.457 185.141 509.648 185.542C509.839 185.924 509.935 186.363 509.935 186.859C509.935 187.375 509.81 187.871 509.562 188.348C509.314 188.806 508.942 189.217 508.445 189.58C507.968 189.923 507.376 190.2 506.67 190.41C505.964 190.62 505.162 190.725 504.265 190.725C502.833 190.725 501.554 190.515 500.428 190.095C499.301 189.656 498.328 189.14 497.507 188.549L498.223 187.632ZM515.307 169.793H516.595V175.749L516.509 179.357C517.369 178.459 518.228 177.725 519.087 177.152C519.965 176.579 520.958 176.293 522.065 176.293C525.367 176.293 527.019 178.135 527.019 181.819V190.381H525.73V181.991C525.73 180.445 525.425 179.299 524.814 178.555C524.222 177.81 523.239 177.438 521.864 177.438C521.368 177.438 520.91 177.505 520.49 177.639C520.07 177.753 519.65 177.944 519.23 178.211C518.829 178.459 518.409 178.784 517.97 179.185C517.55 179.567 517.092 180.015 516.595 180.531V190.381H515.307V169.793ZM532.248 176.636H540.409V190.381H539.149V177.725H532.248V176.636ZM539.464 173.315C539.082 173.315 538.758 173.191 538.49 172.942C538.242 172.694 538.118 172.36 538.118 171.94C538.118 171.52 538.242 171.186 538.49 170.938C538.758 170.69 539.082 170.566 539.464 170.566C539.846 170.566 540.161 170.69 540.409 170.938C540.676 171.186 540.81 171.52 540.81 171.94C540.81 172.36 540.676 172.694 540.409 172.942C540.161 173.191 539.846 173.315 539.464 173.315ZM562.676 171.253C562.027 170.967 561.464 170.776 560.987 170.68C560.509 170.585 559.946 170.537 559.297 170.537C558.572 170.537 557.951 170.642 557.436 170.852C556.939 171.062 556.529 171.358 556.204 171.74C555.88 172.122 555.641 172.58 555.489 173.114C555.355 173.649 555.288 174.231 555.288 174.861V176.636H561.674V177.725H555.288V190.381H554.085V177.725H549.933V176.751L554.085 176.636V174.976C554.085 173.238 554.505 171.883 555.345 170.909C556.185 169.936 557.474 169.449 559.211 169.449C559.822 169.449 560.442 169.506 561.072 169.621C561.702 169.735 562.371 169.955 563.077 170.279L562.676 171.253ZM570.253 177.725H566.13V176.751L570.282 176.636L570.454 172.656H571.513V176.636H578.815V177.725H571.513V185.342C571.513 186.01 571.57 186.611 571.685 187.146C571.8 187.661 572 188.11 572.286 188.491C572.573 188.854 572.954 189.131 573.432 189.322C573.928 189.513 574.558 189.608 575.322 189.608C576.047 189.608 576.706 189.551 577.298 189.436C577.889 189.303 578.452 189.121 578.987 188.892L579.331 189.866C578.72 190.133 578.032 190.343 577.269 190.496C576.524 190.649 575.818 190.725 575.15 190.725C574.214 190.725 573.432 190.591 572.802 190.324C572.172 190.057 571.666 189.685 571.284 189.207C570.921 188.73 570.654 188.157 570.482 187.489C570.33 186.802 570.253 186.048 570.253 185.227V177.725Z" fill="black"/>
<path d="M190.018 187.711L154.715 186.711" stroke="black" stroke-width="0.759363"/>
<path d="M190.018 174.946L154.715 173.946" stroke="black" stroke-width="0.759363"/>
<path id = "smallSpinner" d="M260.833 163.164C259.302 170.138 261.003 177.963 265.256 184.086C267.637 187.148 270.359 189.53 273.591 191.231C271.549 189.019 270.359 185.957 270.359 182.896C270.359 182.726 270.359 182.556 270.529 182.385C270.529 181.705 270.699 181.025 270.869 180.174C272.23 173.37 276.312 167.417 282.095 163.675C286.348 160.953 291.111 159.422 296.043 159.422C297.914 159.422 299.786 159.592 301.657 160.103C308.29 161.634 314.074 165.886 317.646 171.669C318.326 172.86 319.007 174.051 319.517 175.241C318.326 169.118 315.605 163.505 311.692 158.572C306.76 152.278 299.956 147.686 292.301 145.474C290.26 144.794 288.219 144.284 286.008 144.114H284.477C280.394 144.114 276.312 145.134 272.74 147.175C266.617 150.577 262.364 156.531 260.833 163.164ZM263.045 205.178C264.405 205.519 265.766 205.519 267.297 205.519C276.652 205.519 284.987 200.076 289.069 191.741C287.028 193.612 284.307 194.632 281.585 194.632H281.415C280.905 194.632 280.565 194.632 280.224 194.462C273.931 193.952 268.318 190.55 264.235 184.937C259.643 178.473 257.771 170.309 259.472 162.994C261.003 155.68 265.596 149.557 272.06 145.985C273.08 145.304 274.101 144.794 275.121 144.454C268.658 145.644 262.534 148.366 257.431 152.618C250.627 158.232 245.695 166.226 243.824 174.901C243.483 176.262 243.313 177.623 243.143 178.983C242.803 184.427 243.994 189.7 247.055 194.292C250.627 200.076 256.411 203.988 263.045 205.178ZM316.455 172.52C313.053 166.907 307.44 162.824 301.316 161.463C299.445 161.123 297.744 160.953 295.873 160.953C291.281 160.953 286.858 162.314 282.946 164.865C279.034 167.247 275.972 170.819 274.101 174.901C276.142 173.03 278.693 172.01 281.415 171.839H281.585C282.266 171.839 282.776 172.01 283.456 172.01C289.58 172.86 295.533 177.112 299.615 183.746C303.528 190.21 304.548 198.034 302.337 205.349C300.126 212.663 294.853 218.616 288.049 221.678C287.539 221.848 286.858 222.188 286.348 222.358C302.507 220.147 315.945 207.73 319.347 191.231C319.687 190.04 319.857 188.849 320.027 187.488C320.367 182.045 319.177 176.942 316.455 172.52ZM279.714 193.102H280.394C280.735 193.102 281.075 193.272 281.415 193.272H281.585C285.838 193.272 289.75 190.21 290.94 186.128C291.111 185.277 291.281 184.597 291.281 183.576C291.451 178.643 288.049 174.391 283.456 173.54H283.286C282.606 173.37 282.095 173.37 281.415 173.37C277.163 173.37 273.42 176.262 272.23 180.514C272.06 181.365 271.89 182.045 271.89 182.896C271.719 187.829 275.121 192.081 279.714 193.102ZM300.976 205.008C303.187 198.034 302.167 190.55 298.425 184.427C296.213 181.025 293.322 178.133 290.26 176.092C291.961 178.303 292.812 180.855 292.812 183.746C292.641 184.597 292.471 185.447 292.301 186.298C289.75 198.375 279.204 207.05 267.297 207.05C265.766 207.05 264.235 206.879 262.704 206.709C255.9 205.349 249.607 201.266 245.865 195.143C245.014 193.952 244.334 192.591 243.824 191.231C246.375 203.988 255.05 215.044 267.297 219.977C269.848 220.998 272.57 221.678 275.462 222.188C275.972 222.188 276.312 222.358 276.822 222.358H277.843C281.245 222.358 284.477 221.678 287.539 220.317C294.002 217.425 298.935 211.982 300.976 205.008Z" fill="black"/>
<rect x="0.544147" y="129.011" width="102.635" height="102.635" rx="15.5669" fill="white" stroke="black" stroke-width="0.759363"/>
<path d="M41.7258 148.262L61.9961 157.29L41.7258 166.319" stroke="black" stroke-width="0.459203" stroke-linecap="round" stroke-linejoin="round"/>
<circle cx="51.8616" cy="216.269" r="2.40733" stroke="black" stroke-width="0.759363"/>
<line y1="-0.25" x2="353.123" y2="-0.25" transform="matrix(-0.00283188 0.999996 -1 0 397.801 0.919922)" stroke="black" stroke-width="0.5" stroke-dasharray="3 5"/>
</svg>
