<svg width="89" height="90" viewBox="0 0 89 90" fill="none" xmlns="http://www.w3.org/2000/svg">
<path d="M21.0694 21.8836C19.3307 29.8043 21.2626 38.6909 26.0923 45.6456C28.7969 49.123 31.8879 51.8276 35.5585 53.7595C33.2402 51.2481 31.8879 47.7707 31.8879 44.2933C31.8879 44.1001 31.8879 43.9069 32.0811 43.7138C32.0811 42.941 32.2743 42.1683 32.4675 41.2023C34.013 33.4748 38.6495 26.7133 45.2179 22.4631C50.0475 19.3721 55.4568 17.6335 61.0592 17.6335C63.1843 17.6335 65.3093 17.8266 67.4344 18.4062C74.9687 20.1449 81.5371 24.9746 85.594 31.5429C86.3668 32.8953 87.1395 34.2476 87.7191 35.5999C86.3668 28.6451 83.2758 22.2699 78.8325 16.6675C73.23 9.51959 65.5025 4.30352 56.8091 1.79208C54.4908 1.01933 52.1726 0.439767 49.6612 0.246582H47.9225C43.286 0.246582 38.6495 1.40572 34.5925 3.72396C27.6378 7.5877 22.8081 14.3493 21.0694 21.8836ZM23.5809 69.6009C25.1264 69.9872 26.6719 69.9872 28.4106 69.9872C39.0359 69.9872 48.502 63.8052 53.1385 54.3391C50.8203 56.4641 47.7293 57.6232 44.6383 57.6232H44.4451C43.8655 57.6232 43.4792 57.6232 43.0928 57.4301C35.9449 56.8505 29.5697 52.9867 24.9332 46.6116C19.7171 39.2704 17.5921 29.9974 19.5239 21.6904C21.2626 13.3833 26.4787 6.42858 33.8198 2.37165C34.9789 1.5989 36.138 1.01933 37.2972 0.632963C29.9561 1.98527 23.0013 5.07627 17.2057 9.90595C9.47818 16.2811 3.87575 25.3609 1.75069 35.2135C1.36432 36.759 1.17113 38.3045 0.977938 39.85C0.591562 46.032 1.94388 52.0208 5.42125 57.2369C9.47818 63.8052 16.0466 68.2485 23.5809 69.6009ZM84.2417 32.5089C80.378 26.1337 74.0028 21.4972 67.048 19.9517C64.923 19.5653 62.9911 19.3721 60.866 19.3721C55.65 19.3721 50.6271 20.9176 46.1838 23.8154C41.7405 26.5201 38.2631 30.577 36.138 35.2135C38.4563 33.0884 41.3541 31.9293 44.4451 31.7361H44.6383C45.411 31.7361 45.9906 31.9293 46.7634 31.9293C53.7181 32.8953 60.4797 37.7249 65.1162 45.2592C69.5595 52.6004 70.7186 61.487 68.2072 69.7941C65.6957 78.1011 59.7069 84.8627 51.9794 88.34C51.3998 88.5332 50.6271 88.9196 50.0475 89.1128C68.4003 86.6014 83.6621 72.4987 87.5259 53.7595C87.9123 52.4072 88.1055 51.0549 88.2987 49.5094C88.685 43.3274 87.3327 37.5318 84.2417 32.5089ZM42.5132 55.8846H43.286C43.6724 55.8846 44.0587 56.0777 44.4451 56.0777H44.6383C49.468 56.0777 53.9113 52.6004 55.2636 47.9639C55.4568 46.9979 55.65 46.2252 55.65 45.0661C55.8432 39.4636 51.9794 34.6339 46.7634 33.668H46.5702C45.7974 33.4748 45.2179 33.4748 44.4451 33.4748C39.6154 33.4748 35.3653 36.759 34.013 41.5887C33.8198 42.5546 33.6266 43.3274 33.6266 44.2933C33.4334 49.8957 37.2972 54.7254 42.5132 55.8846ZM66.6617 69.4077C69.1731 61.487 68.014 52.9867 63.7638 46.032C61.2524 42.1683 57.9682 38.8841 54.4908 36.5658C56.4227 39.0773 57.3887 41.9751 57.3887 45.2592C57.1955 46.2252 57.0023 47.1911 56.8091 48.1571C53.9113 61.8734 41.9337 71.7259 28.4106 71.7259C26.6719 71.7259 24.9332 71.5327 23.1945 71.3395C15.467 69.794 8.31906 65.1575 4.06894 58.2028C3.103 56.8505 2.33025 55.305 1.75069 53.7595C4.6485 68.2486 14.5011 80.8057 28.4106 86.4082C31.3084 87.5673 34.3994 88.34 37.6835 88.9196C38.2631 88.9196 38.6495 89.1128 39.229 89.1128H40.3882C44.2519 89.1128 47.9225 88.34 51.3999 86.7945C58.741 83.5104 64.3434 77.3284 66.6617 69.4077Z" fill="blue"/>
</svg>
